:SAMPLES-PER-SECOND 30
:FULLY-SPECIFIED
:DEGREES
791
root  77.2557 38.392 0.582285 -24.0454 -85.7197 24.241
RightUpLeg  0.709252 -9.46273 -2.58742
RightLeg  16.1403 3.12036 1.09574
RightFoot  -17.4178 -0.247068 -2.43542
RightToes  3.49245e-010 0 -3.6325e-017
Spine  6.12682 1.13701 11.0584
Spine1  3.68573 3.10065 -6.31938
HEad  -14.9115 -29.1347 8.35803
LeftShoulder1  0.0243035 3.44181 -33.1174
LeftArm  4.74583 12.2585 -40.396
LeftForeArm  27.0232 -40.2652 -7.74498
LeftHand  -0.0439838 4.75969 4.23775
RightShoulder  -0.928281 -6.06279 29.6976
RightArm  18.1466 7.50171 49.0885
RightForeArm  3.79054 20.7335 4.72647
RightHand  -0.281625 8.16235 -2.77862
LeftUpLeg  -27.1141 2.86175 0.802761
LeftLeg  39.2011 -2.27881 -1.62686
LeftFoot  -4.07949 0.431949 -6.41155
LeftToes  -5.6298e-010 8.41567e-011 -1.83319e-011
792
root  76.7644 38.4204 0.619676 -27.2729 -85.1774 27.7557
RightUpLeg  1.79886 -9.53134 -3.12868
RightLeg  15.0925 2.87812 0.886913
RightFoot  -17.6495 -0.242586 -2.2396
RightToes  3.49245e-010 0 -3.6325e-017
Spine  5.89977 1.20489 10.9636
Spine1  3.85463 3.21662 -7.25401
HEad  -15.317 -28.8303 7.94814
LeftShoulder1  -0.00610613 3.51918 -33.2366
LeftArm  5.96605 12.3542 -40.2288
LeftForeArm  26.1096 -38.8009 -7.37084
LeftHand  -0.0159785 5.60279 5.13003
RightShoulder  -0.900226 -6.00233 29.4451
RightArm  18.3567 9.068 49.5796
RightForeArm  3.65438 22.607 4.74613
RightHand  -0.421072 7.74089 -4.08593
LeftUpLeg  -27.6179 2.79146 -0.187244
LeftLeg  32.7381 -1.60918 -0.780598
LeftFoot  -4.37123 0.376694 -5.75407
LeftToes  -5.6298e-010 8.41567e-011 -1.83319e-011
793
root  76.2584 38.3883 0.678584 -23.0053 -84.4547 23.9591
RightUpLeg  2.65558 -9.50041 -3.21124
RightLeg  14.2514 2.14713 0.774349
RightFoot  -18.0328 -0.230806 -1.85875
RightToes  3.49245e-010 0 -3.6325e-017
Spine  5.85817 0.978214 11.1881
Spine1  3.4901 3.00934 -8.12569
HEad  -15.5271 -28.5046 7.91032
LeftShoulder1  0.050675 3.37493 -33.0251
LeftArm  6.68893 12.5554 -40.5108
LeftForeArm  25.1832 -35.9422 -6.62229
LeftHand  -0.00957156 5.60253 4.65413
RightShoulder  -0.831588 -5.83133 29.1107
RightArm  17.9577 10.2811 49.7886
RightForeArm  4.37557 24.506 5.00619
RightHand  -0.399717 6.80923 -4.14277
LeftUpLeg  -27.9127 1.47168 -0.520853
LeftLeg  25.7123 -0.796305 -0.0877962
LeftFoot  -3.56261 0.390781 -5.44674
LeftToes  -5.6298e-010 8.41567e-011 -1.83319e-011
794
root  75.6206 38.3661 0.741496 -28.7318 -84.9583 29.6987
RightUpLeg  4.15649 -9.45468 -3.65522
RightLeg  13.2686 2.82712 0.778316
RightFoot  -18.4472 -0.238933 -1.83846
RightToes  3.49245e-010 0 -3.6325e-017
Spine  5.78842 1.03067 11.4264
Spine1  4.17317 3.41331 -9.6517
HEad  -15.4939 -27.5431 8.75923
LeftShoulder1  -0.0714712 3.68763 -32.714
LeftArm  7.63887 12.5559 -40.9803
LeftForeArm  22.7828 -32.1019 -5.777
LeftHand  0.106285 8.5453 5.4178
RightShoulder  -0.770595 -5.69226 28.5799
RightArm  18.9746 12.0177 50.8644
RightForeArm  5.0405 25.3512 5.17219
RightHand  -0.40505 7.05144 -4.12862
LeftUpLeg  -27.0078 1.21134 -0.696349
LeftLeg  18.9142 -0.66742 0.0776588
LeftFoot  -2.34696 0.388166 -4.74852
LeftToes  -5.6298e-010 8.41567e-011 -1.83319e-011
795
root  74.8539 38.3166 0.800762 -40.0668 -86.1622 40.6977
RightUpLeg  6.27427 -9.27891 -4.12323
RightLeg  12.0276 4.32705 0.689305
RightFoot  -18.9523 -0.222025 -1.41363
RightToes  3.49245e-010 0 -3.6325e-017
Spine  5.99246 1.7248 10.72
Spine1  4.55074 4.25331 -9.91181
HEad  -15.3166 -27.5599 8.362
LeftShoulder1  -0.0777881 3.70352 -32.8523
LeftArm  9.65223 12.5771 -41.251
LeftForeArm  19.9684 -26.8238 -4.62722
LeftHand  0.102527 8.51986 5.1845
RightShoulder  -0.791466 -5.75276 28.5684
RightArm  20.5644 12.9994 50.6331
RightForeArm  5.90988 26.199 5.31706
RightHand  -0.345454 7.36727 -3.49782
LeftUpLeg  -25.4903 2.27758 -0.85702
LeftLeg  13.8629 -1.04839 -0.0227756
LeftFoot  -1.7295 0.396303 -4.58816
LeftToes  -5.6298e-010 8.41567e-011 -1.83319e-011
796
root  74.0203 38.1122 0.940964 -34.3084 -86.1158 34.9977
RightUpLeg  7.66512 -9.46845 -4.32571
RightLeg  12.1977 4.50662 0.852832
RightFoot  -20.1713 -0.201743 -0.851082
RightToes  3.49245e-010 0 -3.6325e-017
Spine  5.73169 1.53134 9.99665
Spine1  4.62692 3.88222 -9.3007
HEad  -15.5708 -27.809 8.53747
LeftShoulder1  -0.0697161 3.6815 -33.1651
LeftArm  10.3615 12.7855 -40.9445
LeftForeArm  17.2742 -21.2923 -4.60714
LeftHand  0.254543 11.3579 5.78718
RightShoulder  -0.782561 -5.74625 28.2719
RightArm  22.1809 13.6206 50.908
RightForeArm  6.43234 26.3069 5.31397
RightHand  -0.365051 7.34429 -3.67968
LeftUpLeg  -25.2556 2.0307 -1.05296
LeftLeg  12.434 -0.534671 0.0484726
LeftFoot  -1.70924 0.388195 -4.44172
LeftToes  -5.6298e-010 8.41567e-011 -1.83319e-011
797
root  73.0824 37.9003 1.11224 -41.6448 -86.3989 42.2764
RightUpLeg  9.21651 -9.41601 -4.96665
RightLeg  12.379 5.28415 0.787835
RightFoot  -21.5371 -0.162091 -0.173165
RightToes  3.49245e-010 0 -3.6325e-017
Spine  5.28841 1.55646 9.28687
Spine1  4.95261 4.00733 -9.66078
HEad  -15.1537 -27.5232 9.11288
LeftShoulder1  -0.156007 3.90043 -33.1189
LeftArm  3.70597 13.0051 -40.1835
LeftForeArm  23.1185 -14.7769 -7.3091
LeftHand  0.36047 14.8053 5.24454
RightShoulder  -0.740924 -5.61922 28.3733
RightArm  23.8272 13.521 51.1779
RightForeArm  5.96998 25.533 5.16317
RightHand  -0.444608 7.27586 -4.42054
LeftUpLeg  -24.8206 2.40131 -1.65755
LeftLeg  13.3024 0.40751 0.298733
LeftFoot  -0.662352 0.287283 -3.23551
LeftToes  -5.6298e-010 8.41567e-011 -1.83319e-011
798
root  72.0559 37.7806 1.3224 -71.1935 -86.7249 71.4402
RightUpLeg  11.2491 -8.6834 -6.46646
RightLeg  12.1855 6.51702 0.340529
RightFoot  -22.3839 -0.0658073 0.870366
RightToes  3.49245e-010 0 -3.6325e-017
Spine  5.04501 2.03748 7.48468
Spine1  5.65745 4.6426 -9.96418
HEad  -14.9081 -26.1332 9.35123
LeftShoulder1  -0.334464 4.34259 -33.7385
LeftArm  -2.50139 13.5334 -38.7427
LeftForeArm  31.3104 -9.38267 -8.58596
LeftHand  0.0623414 13.141 1.84669
RightShoulder  -0.723776 -5.57607 28.2662
RightArm  25.6635 12.6969 51.3311
RightForeArm  5.71926 24.3782 4.90948
RightHand  -0.31587 7.06965 -3.29883
LeftUpLeg  -23.9866 2.4913 -2.73056
LeftLeg  15.3027 1.72359 0.748112
LeftFoot  3.14505 -0.108304 0.752995
LeftToes  -5.6298e-010 8.41567e-011 -1.83319e-011
